# xmcd CD database file
#
# Track frame offsets:
#	150
#	17613
#	32247
#	52946
#	70697
#	83634
#	103705
#	117916
#	136905
#	151266
#	172056
#	196778
#	220442
#	237580
#
# Disc length: 3451 seconds
#
# Revision: 0
# Processed by: cddbd v1.5.2PL0 Copyright (c) Steve Scherf et al.
# Submitted via: cdripper 1,0,39,0213
#
DISCID=b90d790e
DTITLE=Trijntje Oosterhuis - The Look Of Love - Burt Bacharach Songbook
DYEAR=1900
DGENRE=Jazz
TTITLE0=14 - That's What Friends Are For
TTITLE1=01 - Do You Know The Way To Jose
TTITLE2=02 - The Look Of Love
TTITLE3=03 - A House Is Not A Home
TTITLE4=04 - I Say A Little Prayer
TTITLE5=05 - Waiting For Charlie (To Come Hmoe)
TTITLE6=06 - I'll Never Fall In Love Again
TTITLE7=07 - Falling Out Of Love
TTITLE8=08 - Walk On By
TTITLE9=09 - Alfie
TTITLE10=10 - Anyone Who Had A Heart
TTITLE11=11 - This House Is Empty Now
TTITLE12=12 - (They Long To Be) Close To You
TTITLE13=13 - In The Windos Of The World
EXTD=
EXTT0=
EXTT1=
EXTT2=
EXTT3=
EXTT4=
EXTT5=
EXTT6=
EXTT7=
EXTT8=
EXTT9=
EXTT10=
EXTT11=
EXTT12=
EXTT13=
PLAYORDER=
